<?xml version="1.0" standalone="no"?>
<!DOCTYPE svg PUBLIC "-//W3C//DTD SVG 20010904//EN"
 "http://www.w3.org/TR/2001/REC-SVG-20010904/DTD/svg10.dtd">
<svg version="1.0" xmlns="http://www.w3.org/2000/svg"
 width="512.000000pt" height="512.000000pt" viewBox="0 0 512.000000 512.000000"
 preserveAspectRatio="xMidYMid meet">

<g transform="translate(0.000000,512.000000) scale(0.100000,-0.100000)"
fill="#000000" stroke="none">
<path d="M2580 4291 c0 -257 4 -242 -68 -222 l-32 10 0 -130 0 -131 48 3 47 3
3 -77 3 -77 189 0 c214 0 220 3 150 63 -38 32 -148 77 -189 77 -49 0 -51 4
-51 142 l0 130 44 39 c58 51 80 107 74 192 -3 49 -10 75 -31 106 -34 51 -93
91 -146 98 l-41 6 0 -232z"/>
<path d="M3662 4404 c-85 -43 -81 -174 5 -211 51 -21 95 -10 132 33 44 49 43
101 -1 149 -40 43 -88 53 -136 29z"/>
<path d="M4075 4406 c-92 -40 -85 -185 10 -216 71 -23 142 22 151 96 6 48 -11
81 -55 111 -38 26 -63 28 -106 9z"/>
<path d="M4484 4406 c-44 -20 -64 -53 -64 -107 0 -58 26 -94 80 -110 69 -21
138 25 146 98 11 87 -82 155 -162 119z"/>
<path d="M2165 3230 c-176 -11 -347 -27 -495 -45 -152 -20 -201 -44 -306 -150
-90 -90 -143 -184 -163 -285 -41 -210 -40 -584 0 -790 30 -152 161 -320 303
-390 55 -27 85 -34 232 -50 578 -63 1211 -60 1779 10 145 18 269 103 363 248
83 128 107 262 106 587 -1 389 -39 520 -193 675 -109 110 -153 129 -349 151
-87 9 -229 22 -317 29 -210 15 -783 21 -960 10z m-196 -440 c42 -12 76 -43
104 -95 21 -38 22 -53 22 -285 0 -244 0 -246 -26 -295 -14 -28 -39 -60 -57
-71 -60 -41 -204 -41 -264 0 -18 11 -43 43 -57 71 -26 49 -26 52 -26 285 0
201 3 242 18 281 20 53 61 96 103 109 40 12 142 12 183 0z m1444 -23 c48 -36
68 -86 79 -192 12 -105 3 -372 -13 -430 -7 -23 -28 -57 -53 -81 -35 -36 -49
-42 -99 -48 -147 -19 -236 35 -256 155 -31 176 -19 469 21 540 39 70 87 90
205 86 70 -3 86 -7 116 -30z"/>
<path d="M4366 2886 c65 -239 64 -845 0 -1059 -13 -44 -13 -47 4 -47 28 0 171
75 217 114 71 62 83 100 92 293 10 230 -2 485 -24 541 -29 72 -162 172 -266
200 l-37 10 14 -52z"/>
</g>
</svg>
