<?xml version="1.0" encoding="UTF-8" standalone="no" ?>
<!DOCTYPE svg PUBLIC "-//W3C//DTD SVG 1.1//EN" "http://www.w3.org/Graphics/SVG/1.1/DTD/svg11.dtd">
<svg xmlns="http://www.w3.org/2000/svg" xmlns:xlink="http://www.w3.org/1999/xlink" version="1.1" width="297.59375" height="127.72999999999999" xml:space="preserve">
<desc>Created with Fabric.js 1.6.0-rc.1</desc>
<defs></defs>
<g style="stroke: none; stroke-width: 1; stroke-dasharray: none; stroke-linecap: butt; stroke-linejoin: miter; stroke-miterlimit: 10; fill: none; fill-rule: nonzero; opacity: 1;" transform="translate(10.000000000000007 10) scale(0.22 0.21)" >
  <path d="M 256 510.846 c -68.227 0 -132.369 -26.569 -180.612 -74.812 C 27.145 387.792 0.577 323.65 0.577 255.423 S 27.145 123.055 75.388 74.812 S 187.775 0 256 0 s 132.369 26.569 180.612 74.812 s 74.812 112.385 74.812 180.612 s -26.569 132.369 -74.812 180.612 C 388.369 484.278 324.226 510.846 256 510.846 z" style="stroke: none; stroke-width: 1; stroke-dasharray: none; stroke-linecap: butt; stroke-linejoin: miter; stroke-miterlimit: 10; fill: #3d8080; fill-rule: nonzero; opacity: 1;" transform=" matrix(1 0 0 1 0 0) " stroke-linecap="round" />
  <circle cx="256.003" cy="255.423" r="240.573" style="stroke: none; stroke-width: 1; stroke-dasharray: none; stroke-linecap: butt; stroke-linejoin: miter; stroke-miterlimit: 10; fill: #497a72; fill-rule: nonzero; opacity: 1;" transform="  matrix(1 0 0 1 0 0) "/>
  <circle cx="256.002" cy="255.422" r="178.202" style="stroke: none; stroke-width: 1; stroke-dasharray: none; stroke-linecap: butt; stroke-linejoin: miter; stroke-miterlimit: 10; fill: #3d8080; fill-rule: nonzero; opacity: 1;" transform="  matrix(1 0 0 1 0 0) "/>
  <circle cx="256.001" cy="255.421" r="89.101" style="stroke: none; stroke-width: 1; stroke-dasharray: none; stroke-linecap: butt; stroke-linejoin: miter; stroke-miterlimit: 10; fill: #96c793; fill-rule: nonzero; opacity: 1;" transform="  matrix(1 0 0 1 0 0) "/>
  <path d="M 247.969 347.637 c -0.618 -11.856 -2.732 -24.331 -7.104 -36.888 c -1.83 -5.239 -4.051 -10.478 -6.712 -15.706 h -0.012 c -2.447 -4.8 -5.275 -9.587 -8.53 -14.316 c -1.176 -1.699 -2.4 -3.398 -3.683 -5.085 c -11.203 -14.743 -19.614 -35.557 -25.067 -54.459 c -3.98 -13.793 -19.709 -20.256 -32.219 -13.211 c -0.048 0.036 -0.19 0.107 -0.226 0.131 c -1.616 -9.445 -2.863 -19.769 -3.457 -30.793 c -0.535 -9.825 -10.455 -18.616 -20.303 -18.093 c -4.55 0.249 -8.613 2.186 -11.619 5.168 c -1.984 -10.003 -10.989 -17.404 -21.503 -17.06 c -7.354 0.226 -13.722 4.17 -17.369 9.967 c -2.162 3.457 -3.374 7.568 -3.231 11.951 v 3.231 v 0.012 c -2.756 -1.045 -5.774 -1.544 -8.91 -1.378 c -6.712 0.356 -12.557 3.695 -16.323 8.661 c -3.018 3.98 -4.693 9.017 -4.408 14.399 c 1.58 29.7 6.605 54.292 12.343 73.526 c -3.184 1.39 -5.881 3.528 -7.924 6.142 H 61.7 c -3.683 4.693 -5.299 10.918 -3.909 17.167 l 13.959 62.87 c 3.528 15.86 12.367 30.045 25.055 40.191 l 21.693 17.381 c 4.051 3.248 8.322 6.172 12.784 8.752 c 3.664 2.118 5.915 6.032 5.915 10.263 v 44.856 c 0 6.873 3.936 13.166 10.155 16.094 c 20.076 9.452 41.585 16.363 64.11 20.32 c 10.856 1.907 20.776 -6.553 20.776 -17.576 v -64.982 c 0 -1.692 0.355 -3.362 1.059 -4.901 C 237.124 415.894 249.913 384.819 247.969 347.637 z" style="stroke: none; stroke-width: 1; stroke-dasharray: none; stroke-linecap: butt; stroke-linejoin: miter; stroke-miterlimit: 10; fill: #d5a150; fill-rule: nonzero; opacity: 1;" transform=" matrix(1 0 0 1 0 0) " stroke-linecap="round" />
  <path d="M 264.031 347.637 c 0.618 -11.856 2.732 -24.331 7.104 -36.888 c 1.83 -5.239 4.051 -10.478 6.712 -15.706 h 0.012 c 2.447 -4.8 5.275 -9.587 8.53 -14.316 c 1.176 -1.699 2.4 -3.398 3.683 -5.085 c 11.203 -14.743 19.614 -35.557 25.067 -54.459 c 3.98 -13.793 19.709 -20.256 32.219 -13.211 c 0.048 0.036 0.19 0.107 0.226 0.131 c 1.616 -9.445 2.863 -19.769 3.457 -30.793 c 0.535 -9.825 10.455 -18.616 20.303 -18.093 c 4.55 0.249 8.613 2.186 11.619 5.168 c 1.984 -10.003 10.989 -17.404 21.503 -17.06 c 7.354 0.226 13.722 4.17 17.369 9.967 c 2.162 3.457 3.374 7.568 3.231 11.951 v 3.231 v 0.012 c 2.756 -1.045 5.774 -1.544 8.91 -1.378 c 6.712 0.356 12.557 3.695 16.323 8.661 c 3.018 3.98 4.693 9.017 4.408 14.399 c -1.58 29.7 -6.605 54.292 -12.343 73.526 c 3.184 1.39 5.881 3.528 7.924 6.142 h 0.012 c 3.683 4.693 5.299 10.918 3.909 17.167 l -13.959 62.87 c -3.528 15.86 -12.367 30.045 -25.055 40.191 l -21.693 17.381 c -4.051 3.248 -8.322 6.172 -12.784 8.752 c -3.664 2.118 -5.915 6.032 -5.915 10.263 v 44.856 c 0 6.873 -3.936 13.166 -10.155 16.094 c -20.076 9.452 -41.585 16.363 -64.11 20.32 c -10.856 1.907 -20.776 -6.553 -20.776 -17.576 v -64.982 c 0 -1.692 -0.355 -3.362 -1.059 -4.901 C 274.876 415.894 262.087 384.819 264.031 347.637 z" style="stroke: none; stroke-width: 1; stroke-dasharray: none; stroke-linecap: butt; stroke-linejoin: miter; stroke-miterlimit: 10; fill: #d5a150; fill-rule: nonzero; opacity: 1;" transform=" matrix(1 0 0 1 0 0) " stroke-linecap="round" />
  <path d="M 196.861 221.185 c 5.453 18.901 13.864 39.715 25.067 54.459 c 1.283 1.687 2.507 3.386 3.683 5.085 c -11.393 -6.392 -23.38 -9.088 -23.38 -9.088 s 0 0 -0.012 -0.012 c -7.734 -13.365 -13.306 -27.966 -17.167 -40.214 c -0.249 -0.796 -1.069 -3.968 -2.02 -7.675 c -2.21 -8.673 -9.706 -14.957 -18.616 -15.634 c 0.036 -0.024 0.178 -0.095 0.226 -0.131 C 177.151 200.929 192.881 207.392 196.861 221.185 z" style="stroke: none; stroke-width: 1; stroke-dasharray: none; stroke-linecap: butt; stroke-linejoin: miter; stroke-miterlimit: 10; fill: #ecce93; fill-rule: nonzero; opacity: 1;" transform=" matrix(1 0 0 1 0 0) " stroke-linecap="round" />
  <path d="M 164.416 208.105 c 6.201 36.389 17.761 59.674 17.903 59.9 c -6.095 -0.523 -11.821 -0.689 -17.167 -0.582 c -5.952 -14.339 -15.943 -43.933 -19.056 -81.106 c -0.024 -0.249 -0.036 -0.606 -0.059 -1.057 c -0.511 -9.92 -7.389 -18.367 -17 -20.873 c 3.006 -2.982 7.069 -4.918 11.619 -5.168 c 9.849 -0.523 19.769 8.269 20.303 18.093 C 161.553 188.336 162.8 198.66 164.416 208.105 z" style="stroke: none; stroke-width: 1; stroke-dasharray: none; stroke-linecap: butt; stroke-linejoin: miter; stroke-miterlimit: 10; fill: #ecce93; fill-rule: nonzero; opacity: 1;" transform=" matrix(1 0 0 1 0 0) " stroke-linecap="round" />
  <path d="M 129.453 167.926 c 1.402 45.121 11.821 80.25 19.697 100.708 c -5.607 0.76 -10.668 1.806 -15.171 3.006 c 0 0 -0.297 -0.737 -0.392 -0.986 c -6.558 -15.86 -15.1 -42.448 -17.084 -79.633 c -0.843 -16.05 -11.785 -29.225 -26.338 -33.728 c 3.647 -5.798 10.015 -9.742 17.369 -9.967 c 10.514 -0.345 19.519 7.057 21.503 17.06 C 129.274 165.538 129.417 166.714 129.453 167.926 z" style="stroke: none; stroke-width: 1; stroke-dasharray: none; stroke-linecap: butt; stroke-linejoin: miter; stroke-miterlimit: 10; fill: #ecce93; fill-rule: nonzero; opacity: 1;" transform=" matrix(1 0 0 1 0 0) " stroke-linecap="round" />
  <path d="M 101.083 191.841 c 2.115 39.727 11.274 68.299 18.284 84.836 c -8.684 3.778 -13.021 7.259 -13.021 7.259 c -2.994 -7.746 -9.148 -13.591 -16.573 -16.371 c -7.401 -16.894 -12.878 -48.4 -14.636 -69.071 c -0.083 -0.903 -0.19 -2.233 -0.309 -3.742 c -0.57 -7.354 -5.916 -13.448 -13.128 -14.981 c 3.766 -4.966 9.611 -8.304 16.323 -8.661 c 3.136 -0.166 6.154 0.333 8.91 1.378 C 94.834 175.47 100.608 182.871 101.083 191.841 z" style="stroke: none; stroke-width: 1; stroke-dasharray: none; stroke-linecap: butt; stroke-linejoin: miter; stroke-miterlimit: 10; fill: #ecce93; fill-rule: nonzero; opacity: 1;" transform=" matrix(1 0 0 1 0 0) " stroke-linecap="round" />
  <path d="M 69.636 267.695 c 1.022 -0.44 2.103 -0.808 3.231 -1.093 c 2.317 -0.582 4.645 -0.855 6.938 -0.855 c 3.457 0 6.819 0.63 9.967 1.818 c 7.425 2.78 13.579 8.625 16.573 16.371 c 0.487 1.236 0.891 2.519 1.2 3.849 l 3.469 14.874 l 3.182 13.632 c 2.108 9.031 -8.039 16.21 -15.639 10.896 c -4.631 -3.237 -8.131 -8.128 -9.521 -14.063 l -4.265 -18.248 c -2.744 -11.025 -11.833 -19.317 -23.059 -21.04 C 63.755 271.224 66.452 269.085 69.636 267.695 z" style="stroke: none; stroke-width: 1; stroke-dasharray: none; stroke-linecap: butt; stroke-linejoin: miter; stroke-miterlimit: 10; fill: #ecce93; fill-rule: nonzero; opacity: 1;" transform=" matrix(1 0 0 1 0 0) " stroke-linecap="round" />
  <path d="M 119.366 276.677 c 3.956 -1.723 8.827 -3.505 14.613 -5.037 c 4.503 -1.2 9.564 -2.245 15.171 -3.006 c 4.907 -0.665 10.241 -1.105 16.003 -1.212 c 5.346 -0.107 11.072 0.059 17.167 0.582 c 0.095 0.012 0.178 0.012 0.273 0.024 c 1.901 0.166 3.849 0.333 5.821 0.606 c 9.088 1.271 13.531 2.899 13.805 2.994 c 0.012 0.012 0.012 0.012 0.012 0.012 s 11.987 2.697 23.38 9.088 c 3.255 4.728 6.083 9.516 8.53 14.316 c -47.984 32.896 -123.126 7.615 -123.126 7.615 l -3.469 -14.874 c -0.309 -1.331 -0.713 -2.614 -1.2 -3.849 C 106.346 283.936 110.682 280.455 119.366 276.677 z" style="stroke: none; stroke-width: 1; stroke-dasharray: none; stroke-linecap: butt; stroke-linejoin: miter; stroke-miterlimit: 10; fill: #ecce93; fill-rule: nonzero; opacity: 1;" transform=" matrix(1 0 0 1 0 0) " stroke-linecap="round" />
  <path d="M 245.226 326.442 c -1.775 -8.415 -11.727 -12.145 -18.647 -7.039 c -4.926 3.634 -10.142 8.244 -15.003 14.001 c -9.117 10.796 -24.483 13.407 -36.806 6.495 c -0.451 -0.253 -0.897 -0.493 -1.337 -0.72 c -13.85 -7.135 -29.172 -8.966 -40.256 -9.152 c -8.419 -0.143 -14.351 8.231 -11.338 16.094 c 7.307 19.069 26.3 48.677 73.169 43.942 c 34.749 -3.505 48.245 -23.178 52.962 -42.424 C 247.61 340.745 246.745 333.646 245.226 326.442 z" style="stroke: none; stroke-width: 1; stroke-dasharray: none; stroke-linecap: butt; stroke-linejoin: miter; stroke-miterlimit: 10; fill: #ecce93; fill-rule: nonzero; opacity: 1;" transform=" matrix(1 0 0 1 0 0) " stroke-linecap="round" />
  <path d="M 315.139 221.185 c -5.453 18.901 -13.864 39.715 -25.067 54.459 c -1.283 1.687 -2.507 3.386 -3.683 5.085 c 11.393 -6.392 23.38 -9.088 23.38 -9.088 s 0 0 0.012 -0.012 c 7.734 -13.365 13.306 -27.966 17.167 -40.214 c 0.249 -0.796 1.069 -3.968 2.02 -7.675 c 2.21 -8.673 9.706 -14.957 18.616 -15.634 c -0.036 -0.024 -0.178 -0.095 -0.226 -0.131 C 334.848 200.929 319.119 207.392 315.139 221.185 z" style="stroke: none; stroke-width: 1; stroke-dasharray: none; stroke-linecap: butt; stroke-linejoin: miter; stroke-miterlimit: 10; fill: #ecce93; fill-rule: nonzero; opacity: 1;" transform=" matrix(1 0 0 1 0 0) " stroke-linecap="round" />
  <path d="M 347.584 208.105 c -6.201 36.389 -17.761 59.674 -17.903 59.9 c 6.095 -0.523 11.821 -0.689 17.167 -0.582 c 5.952 -14.339 15.943 -43.933 19.056 -81.106 c 0.024 -0.249 0.036 -0.606 0.059 -1.057 c 0.511 -9.92 7.389 -18.367 17 -20.873 c -3.006 -2.982 -7.069 -4.918 -11.619 -5.168 c -9.849 -0.523 -19.769 8.269 -20.303 18.093 C 350.447 188.336 349.2 198.66 347.584 208.105 z" style="stroke: none; stroke-width: 1; stroke-dasharray: none; stroke-linecap: butt; stroke-linejoin: miter; stroke-miterlimit: 10; fill: #ecce93; fill-rule: nonzero; opacity: 1;" transform=" matrix(1 0 0 1 0 0) " stroke-linecap="round" />
  <path d="M 382.547 167.926 c -1.402 45.121 -11.821 80.25 -19.697 100.708 c 5.607 0.76 10.668 1.806 15.171 3.006 c 0 0 0.297 -0.737 0.392 -0.986 c 6.558 -15.86 15.1 -42.448 17.084 -79.633 c 0.844 -16.05 11.785 -29.225 26.338 -33.728 c -3.647 -5.798 -10.015 -9.742 -17.369 -9.967 c -10.514 -0.345 -19.519 7.057 -21.503 17.06 C 382.725 165.538 382.583 166.714 382.547 167.926 z" style="stroke: none; stroke-width: 1; stroke-dasharray: none; stroke-linecap: butt; stroke-linejoin: miter; stroke-miterlimit: 10; fill: #ecce93; fill-rule: nonzero; opacity: 1;" transform=" matrix(1 0 0 1 0 0) " stroke-linecap="round" />
  <path d="M 410.917 191.841 c -2.115 39.727 -11.274 68.299 -18.284 84.836 c 8.684 3.778 13.021 7.259 13.021 7.259 c 2.994 -7.746 9.148 -13.591 16.573 -16.371 c 7.401 -16.894 12.878 -48.4 14.636 -69.071 c 0.083 -0.903 0.19 -2.233 0.309 -3.742 c 0.57 -7.354 5.916 -13.448 13.128 -14.981 c -3.766 -4.966 -9.611 -8.304 -16.323 -8.661 c -3.136 -0.166 -6.154 0.333 -8.91 1.378 C 417.166 175.47 411.392 182.871 410.917 191.841 z" style="stroke: none; stroke-width: 1; stroke-dasharray: none; stroke-linecap: butt; stroke-linejoin: miter; stroke-miterlimit: 10; fill: #ecce93; fill-rule: nonzero; opacity: 1;" transform=" matrix(1 0 0 1 0 0) " stroke-linecap="round" />
  <path d="M 442.364 267.695 c -1.022 -0.44 -2.103 -0.808 -3.231 -1.093 c -2.317 -0.582 -4.645 -0.855 -6.938 -0.855 c -3.457 0 -6.819 0.63 -9.967 1.818 c -7.425 2.78 -13.579 8.625 -16.573 16.371 c -0.487 1.236 -0.891 2.519 -1.2 3.849 l -3.469 14.874 l -3.181 13.632 c -2.108 9.031 8.039 16.21 15.639 10.896 c 4.631 -3.237 8.131 -8.128 9.521 -14.063 l 4.265 -18.248 c 2.744 -11.025 11.833 -19.317 23.059 -21.04 C 448.244 271.224 445.548 269.085 442.364 267.695 z" style="stroke: none; stroke-width: 1; stroke-dasharray: none; stroke-linecap: butt; stroke-linejoin: miter; stroke-miterlimit: 10; fill: #ecce93; fill-rule: nonzero; opacity: 1;" transform=" matrix(1 0 0 1 0 0) " stroke-linecap="round" />
  <path d="M 392.634 276.677 c -3.956 -1.723 -8.827 -3.505 -14.613 -5.037 c -4.503 -1.2 -9.564 -2.245 -15.171 -3.006 c -4.907 -0.665 -10.241 -1.105 -16.003 -1.212 c -5.346 -0.107 -11.072 0.059 -17.167 0.582 c -0.095 0.012 -0.178 0.012 -0.273 0.024 c -1.901 0.166 -3.849 0.333 -5.821 0.606 c -9.088 1.271 -13.532 2.899 -13.805 2.994 c -0.012 0.012 -0.012 0.012 -0.012 0.012 s -11.987 2.697 -23.38 9.088 c -3.255 4.728 -6.083 9.516 -8.53 14.316 c 47.984 32.896 123.126 7.615 123.126 7.615 l 3.469 -14.874 c 0.309 -1.331 0.713 -2.614 1.2 -3.849 C 405.654 283.936 401.318 280.455 392.634 276.677 z" style="stroke: none; stroke-width: 1; stroke-dasharray: none; stroke-linecap: butt; stroke-linejoin: miter; stroke-miterlimit: 10; fill: #ecce93; fill-rule: nonzero; opacity: 1;" transform=" matrix(1 0 0 1 0 0) " stroke-linecap="round" />
  <path d="M 266.775 326.442 c 1.775 -8.415 11.727 -12.145 18.647 -7.039 c 4.926 3.634 10.142 8.244 15.003 14.001 c 9.117 10.796 24.483 13.407 36.806 6.495 c 0.451 -0.253 0.897 -0.493 1.337 -0.72 c 13.85 -7.135 29.172 -8.966 40.256 -9.152 c 8.419 -0.143 14.351 8.231 11.338 16.094 c -7.307 19.069 -26.3 48.677 -73.169 43.942 c -34.749 -3.505 -48.245 -23.178 -52.962 -42.424 C 264.391 340.745 265.255 333.646 266.775 326.442 z" style="stroke: none; stroke-width: 1; stroke-dasharray: none; stroke-linecap: butt; stroke-linejoin: miter; stroke-miterlimit: 10; fill: #ecce93; fill-rule: nonzero; opacity: 1;" transform=" matrix(1 0 0 1 0 0) " stroke-linecap="round" />
  <path d="M 326.392 78.612 c -18.964 -20.424 -50.855 -20.853 -70.361 -1.285 c -19.506 -19.568 -51.397 -19.139 -70.361 1.285 c -18.064 19.455 -16.676 50.086 2.065 68.885 l 42.375 42.507 c 14.316 14.361 37.527 14.361 51.843 0 l 42.375 -42.507 C 343.068 128.696 344.456 98.067 326.392 78.612 z" style="stroke: none; stroke-width: 1; stroke-dasharray: none; stroke-linecap: butt; stroke-linejoin: miter; stroke-miterlimit: 10; fill: #2cebd2; fill-rule: nonzero; opacity: 1;" transform=" matrix(1 0 0 1 0 0) " stroke-linecap="round" />
  <path d="M 302.365 78.326 c -0.491 -0.52 -0.991 -1.028 -1.498 -1.522 c -12.363 -12.033 -32.392 -11.823 -44.641 0.327 c -0.065 0.064 -0.131 0.129 -0.195 0.195 c -3.04 -3.05 -6.394 -5.579 -9.94 -7.656 c 0.006 -0.011 0.012 -0.021 0.018 -0.032 c -0.639 -0.374 -1.287 -0.728 -1.938 -1.07 c -0.007 -0.004 -0.013 -0.008 -0.02 -0.012 l 0 0 c -10.705 -5.629 -23.047 -6.993 -34.556 -4.113 c -0.002 0 -0.004 -0.001 -0.006 -0.001 c -0.025 0.006 -0.049 0.015 -0.074 0.021 c -0.276 0.07 -0.554 0.128 -0.829 0.203 c 0.008 0.01 0.018 0.019 0.026 0.029 c -8.558 2.313 -16.62 6.963 -23.135 14.019 c -17.968 19.458 -16.676 49.889 2.022 68.646 l 42.512 42.645 c 4.092 4.105 8.911 7.031 14.041 8.789 c 5.13 -1.758 9.95 -4.684 14.041 -8.789 l 42.498 -42.63 C 319.533 128.471 320.678 97.744 302.365 78.326 z" style="stroke: none; stroke-width: 1; stroke-dasharray: none; stroke-linecap: butt; stroke-linejoin: miter; stroke-miterlimit: 10; fill: #18f7b8; fill-rule: nonzero; opacity: 1;" transform=" matrix(1 0 0 1 0 0) " stroke-linecap="round" />
  <path d="M 256.031 77.326 L 256.031 77.326 c -3.04 -3.05 -6.394 -5.579 -9.94 -7.656 c 0.006 -0.011 0.012 -0.021 0.018 -0.032 c -0.639 -0.374 -1.287 -0.728 -1.938 -1.07 c -0.007 -0.004 -0.013 -0.008 -0.02 -0.012 l 0 0 c -6.085 -3.199 -12.699 -5.016 -19.386 -5.464 c 9.988 2.375 16.349 8.396 20.07 13.379 C 247.539 80.094 252.809 80.498 256.031 77.326 z" style="stroke: none; stroke-width: 1; stroke-dasharray: none; stroke-linecap: butt; stroke-linejoin: miter; stroke-miterlimit: 10; fill: #2cebd2; fill-rule: nonzero; opacity: 1;" transform=" matrix(1 0 0 1 0 0) " stroke-linecap="round" />
  <ellipse cx="200" cy="90.88999999999999" rx="11.88" ry="17.82" style="stroke: none; stroke-width: 1; stroke-dasharray: none; stroke-linecap: butt; stroke-linejoin: miter; stroke-miterlimit: 10; fill: #13f2e7; fill-rule: nonzero; opacity: 1;" transform=" matrix(-0.7071 -0.7071 0.7071 -0.7071 277.1565 296.5751) "/>
  <circle cx="223.35999999999999" cy="127.71" r="8.91" style="stroke: none; stroke-width: 1; stroke-dasharray: none; stroke-linecap: butt; stroke-linejoin: miter; stroke-miterlimit: 10; fill: #2cebd2; fill-rule: nonzero; opacity: 1;" transform="  matrix(1 0 0 1 0 0) "/>
  <circle cx="288.70000000000005" cy="127.71" r="8.91" style="stroke: none; stroke-width: 1; stroke-dasharray: none; stroke-linecap: butt; stroke-linejoin: miter; stroke-miterlimit: 10; fill: #2cebd2; fill-rule: nonzero; opacity: 1;" transform="  matrix(1 0 0 1 0 0) "/>
</g>
  <g transform="translate(177.97 67.67) scale(1 0.83)">
   <text font-family="ADAMCG PRO" font-size="40" font-weight="normal" style="stroke: none; stroke-width: 1; stroke-dasharray: none; stroke-linecap: butt; stroke-linejoin: miter; stroke-miterlimit: 10; fill: #1e68b8; fill-rule: nonzero; opacity: 1;" ><tspan x="-54.47" y="8.98" style="stroke: none; stroke-width: 0; stroke-dasharray: none; stroke-linecap: butt; stroke-linejoin: miter; stroke-miterlimit: 4; fill: #1e68b8; fill-rule: ; opacity: 1;">W</tspan><tspan x="-9.65" y="8.98" style="stroke: none; stroke-width: 0; stroke-dasharray: none; stroke-linecap: butt; stroke-linejoin: miter; stroke-miterlimit: 4; fill: #1e68b8; fill-rule: ; opacity: 1;">E</tspan><tspan x="13.61" y="8.98" style="stroke: none; stroke-width: 0; stroke-dasharray: none; stroke-linecap: butt; stroke-linejoin: miter; stroke-miterlimit: 4; fill: #1e68b8; fill-rule: ; opacity: 1;">L</tspan><tspan x="34.04" y="8.98" style="stroke: none; stroke-width: 0; stroke-dasharray: none; stroke-linecap: butt; stroke-linejoin: miter; stroke-miterlimit: 4; fill: #1e68b8; fill-rule: ; opacity: 1;">L</tspan></text>
 </g>
  <g transform="translate(261.3 64.01) scale(1 1.15)">
   <text font-family="King Of The World" font-size="40" font-weight="normal" style="stroke: none; stroke-width: 1; stroke-dasharray: none; stroke-linecap: butt; stroke-linejoin: miter; stroke-miterlimit: 10; fill: #298079; fill-rule: nonzero; opacity: 1;" ><tspan x="-26.8" y="8.98" style="stroke: none; stroke-width: 0; stroke-dasharray: none; stroke-linecap: butt; stroke-linejoin: miter; stroke-miterlimit: 4; fill: #298079; fill-rule: ; opacity: 1;">o</tspan><tspan x="-8.05" y="8.98" style="stroke: none; stroke-width: 0; stroke-dasharray: none; stroke-linecap: butt; stroke-linejoin: miter; stroke-miterlimit: 4; fill: #298079; fill-rule: ; opacity: 1;">r</tspan><tspan x="7.27" y="8.98" style="stroke: none; stroke-width: 0; stroke-dasharray: none; stroke-linecap: butt; stroke-linejoin: miter; stroke-miterlimit: 4; fill: #298079; fill-rule: ; opacity: 1;">a</tspan></text>
 </g>
</svg>