<?xml version="1.0" encoding="UTF-8"?>
<svg version="1.1" xmlns="http://www.w3.org/2000/svg" width="1013" height="616">
<path d="M0 0 C1.23385437 -0.00525696 2.46770874 -0.01051392 3.73895264 -0.01593018 C7.09449473 -0.02680532 10.44947546 -0.02434998 13.80498505 -0.01479292 C17.33435256 -0.00714056 20.86369784 -0.01425728 24.39306641 -0.01895142 C30.31742605 -0.02439287 36.24167311 -0.01725988 42.16601562 -0.00292969 C48.99278856 0.01339379 55.81929261 0.00810414 62.64605904 -0.0084089 C68.5317418 -0.02206992 74.41734413 -0.02392099 80.30303764 -0.0160929 C83.80764033 -0.01144162 87.31211708 -0.01072068 90.81671143 -0.02070236 C94.72687036 -0.03106341 98.63673368 -0.01665954 102.546875 0 C103.69210632 -0.00607269 104.83733765 -0.01214539 106.01727295 -0.0184021 C116.42825048 0.0634253 124.72141756 1.70616521 132.35546875 9.08349609 C137.05047881 14.72515788 138.88308324 21.05720083 138.546875 28.33740234 C138.16776436 31.18073212 137.35957728 33.74071788 136.2734375 36.38818359 C136.87929688 36.40236328 137.48515625 36.41654297 138.109375 36.43115234 C147.00237378 36.9373692 154.08701977 39.6375163 160.2109375 46.26318359 C165.73882537 53.16979174 167.8522429 60.56140131 167.2734375 69.38818359 C166.42202813 72.77402086 165.39117897 76.08153174 164.2734375 79.38818359 C165.1190625 79.47455078 165.9646875 79.56091797 166.8359375 79.64990234 C177.63310894 80.98727926 183.92576249 83.88954276 190.796875 92.37646484 C196.27091284 99.83447936 196.00583226 107.33312116 195.2734375 116.38818359 C194.72244168 118.77871093 194.02967971 121.05015986 193.2734375 123.38818359 C193.98628906 123.60732422 194.69914062 123.82646484 195.43359375 124.05224609 C205.20799439 127.28845411 210.49180326 131.11158918 215.328125 140.23974609 C218.56496714 147.5962055 218.38879546 156.30396484 215.5859375 163.76318359 C212.20737076 171.12068956 207.52828403 175.76076033 200.2734375 179.38818359 C197.93893444 180.23829508 195.70210922 180.83161299 193.2734375 181.38818359 C193.75490234 182.89445312 193.75490234 182.89445312 194.24609375 184.43115234 C196.48369558 192.31726188 196.70768983 201.37706757 193.2109375 208.88818359 C188.65354281 216.57320209 182.93944183 221.844292 174.2734375 224.38818359 C170.9410649 224.93737349 167.64662188 225.24734082 164.2734375 225.38818359 C164.59828125 226.34917969 164.59828125 226.34917969 164.9296875 227.32958984 C167.85496643 236.41691466 167.9581882 243.49732679 164.2734375 252.38818359 C160.43286624 259.34306425 154.56149866 264.41700667 147.09375 267.20068359 C143.4789771 268.18281057 140.00965741 268.62169734 136.2734375 268.38818359 C136.6034375 269.19255859 136.9334375 269.99693359 137.2734375 270.82568359 C139.28548694 277.99360973 138.7516577 284.13527177 135.72265625 290.95849609 C132.07631971 297.07176112 126.89252981 301.17784846 120.1484375 303.38818359 C116.09466984 304.38262347 112.42975189 304.65924758 108.2734375 304.38818359 C108.6034375 305.04818359 108.9334375 305.70818359 109.2734375 306.38818359 C110.04609168 313.20274018 109.39214419 318.79250629 105.2734375 324.38818359 C100.95800006 328.89386074 96.93836673 332.19029968 90.58135986 332.66233826 C89.07160014 332.68332627 87.56166286 332.69328881 86.05175781 332.69458008 C85.22521698 332.70290359 84.39867615 332.71122711 83.54708862 332.71980286 C80.81519858 332.74389259 78.08354749 332.75267458 75.3515625 332.75927734 C73.4483025 332.7682459 71.54504323 332.77736779 69.64178467 332.78663635 C65.65049528 332.80312712 61.65928977 332.81082637 57.66796875 332.8137207 C52.56572743 332.81909832 47.46428014 332.8567523 42.36226273 332.90246487 C38.42959757 332.9322836 34.4971223 332.93944534 30.56435394 332.94044685 C28.68415447 332.94464117 26.80395403 332.95704369 24.92386627 332.9779644 C22.28622505 333.00497338 19.65040653 333.00002529 17.01269531 332.98754883 C15.85901962 333.00980026 15.85901962 333.00980026 14.68203735 333.03250122 C8.14567611 332.94493849 3.42680157 330.43109664 -1.25834274 325.91005611 C-5.50267494 321.1012134 -7.00450915 316.92296943 -6.8515625 310.57568359 C-6.83351563 309.59986328 -6.81546875 308.62404297 -6.796875 307.61865234 C-6.77367187 306.88259766 -6.75046875 306.14654297 -6.7265625 305.38818359 C-7.644375 305.24123047 -8.5621875 305.09427734 -9.5078125 304.94287109 C-18.96469534 303.21440721 -24.40853278 300.82291682 -31.0390625 294.01318359 C-35.05928839 287.75949888 -36.56021401 281.80904865 -35.7265625 274.38818359 C-34.7265625 270.82568359 -34.7265625 270.82568359 -33.7265625 268.38818359 C-34.33242188 268.37400391 -34.93828125 268.35982422 -35.5625 268.34521484 C-44.45549878 267.83899799 -51.54014477 265.13885089 -57.6640625 258.51318359 C-63.19195037 251.60657545 -65.3053679 244.21496588 -64.7265625 235.38818359 C-63.87515313 232.00234632 -62.84430397 228.69483545 -61.7265625 225.38818359 C-62.995 225.25863281 -62.995 225.25863281 -64.2890625 225.12646484 C-75.08623394 223.78908793 -81.37888749 220.88682442 -88.25 212.39990234 C-93.72403784 204.94188782 -93.45895726 197.44324603 -92.7265625 188.38818359 C-92.17556668 185.99765626 -91.48280471 183.72620733 -90.7265625 181.38818359 C-91.43941406 181.16904297 -92.15226562 180.94990234 -92.88671875 180.72412109 C-102.66111939 177.48791308 -107.94492826 173.66477801 -112.78125 164.53662109 C-116.01809214 157.18016169 -115.84192046 148.47240235 -113.0390625 141.01318359 C-109.66049576 133.65567763 -104.98140903 129.01560686 -97.7265625 125.38818359 C-95.39205944 124.5380721 -93.15523422 123.9447542 -90.7265625 123.38818359 C-91.04753906 122.38400391 -91.36851562 121.37982422 -91.69921875 120.34521484 C-93.93682058 112.45910531 -94.16081483 103.39929962 -90.6640625 95.88818359 C-86.10666781 88.2031651 -80.39256683 82.93207519 -71.7265625 80.38818359 C-68.3941899 79.8389937 -65.09974688 79.52902637 -61.7265625 79.38818359 C-61.943125 78.74751953 -62.1596875 78.10685547 -62.3828125 77.44677734 C-65.30809143 68.35945253 -65.4113132 61.2790404 -61.7265625 52.38818359 C-57.88599124 45.43330294 -52.01462366 40.35936051 -44.546875 37.57568359 C-40.9321021 36.59355662 -37.46278241 36.15466985 -33.7265625 36.38818359 C-34.2215625 35.18162109 -34.2215625 35.18162109 -34.7265625 33.95068359 C-36.73861194 26.78275746 -36.2047827 20.64109542 -33.17578125 13.81787109 C-28.9606711 6.75102874 -23.35416342 3.25641798 -15.63754272 1.02242661 C-10.446184 -0.10866421 -5.29307126 -0.02806699 0 0 Z M-18.7265625 20.38818359 C-20.32742877 23.58991613 -20.22573339 26.91395418 -19.7265625 30.38818359 C-17.93292339 33.1982182 -16.70775315 34.89758827 -13.7265625 36.38818359 C-11.40964813 36.49913492 -9.0895267 36.54477126 -6.77001953 36.56176758 C-6.05438843 36.56845459 -5.33875732 36.5751416 -4.60144043 36.58203125 C-3.04526607 36.59609313 -1.48907094 36.60798356 0.06713486 36.61797905 C2.53003209 36.63437324 4.9927757 36.65761067 7.45559692 36.68287659 C14.45876423 36.75369392 21.46199455 36.81376516 28.46533203 36.86499023 C32.74710653 36.89678921 37.02870507 36.93806809 41.31033707 36.98518562 C42.94257567 37.00120144 44.57485482 37.01352496 46.20714951 37.02209282 C48.4909831 37.03425249 50.77440344 37.05840497 53.05810547 37.08520508 C54.35779266 37.09551254 55.65747986 37.10582001 56.99655151 37.11643982 C60.05010275 37.36966301 61.77281448 37.67190866 64.2734375 39.38818359 C65.65893947 42.15918753 65.4611842 44.32165419 65.2734375 47.38818359 C63.2734375 50.38818359 63.2734375 50.38818359 60.2734375 51.38818359 C58.90351658 51.47942857 57.52961622 51.51711068 56.15666199 51.51948547 C55.31979355 51.52349365 54.48292511 51.52750183 53.62069702 51.53163147 C52.70583527 51.53110275 51.79097351 51.53057404 50.84838867 51.5300293 C49.88223129 51.53350372 48.91607391 51.53697815 47.92063904 51.54055786 C45.82044743 51.5479145 43.72024804 51.55326038 41.62004662 51.55684853 C38.29540564 51.56401008 34.97091258 51.57967435 31.64631653 51.59819031 C22.19286117 51.65067517 12.73948661 51.69864242 3.28588867 51.71411133 C-2.49488504 51.72419121 -8.27528704 51.75351624 -14.05591393 51.79543114 C-16.25867591 51.80774581 -18.46149038 51.81286155 -20.66428566 51.81063271 C-23.74770413 51.80828051 -26.83005576 51.83044084 -29.91333008 51.8581543 C-30.82211914 51.85155289 -31.7309082 51.84495148 -32.66723633 51.83815002 C-38.17943394 51.91944884 -41.35260912 52.71345288 -45.7265625 56.38818359 C-48.88861998 60.07725065 -49.25040034 63.46709092 -49.078125 68.17333984 C-48.5207288 71.68493593 -47.04882796 73.75209848 -44.7265625 76.38818359 C-39.39927871 80.25046434 -34.6461099 80.53132517 -28.22265625 80.59912109 C-26.74543129 80.6271717 -25.26821787 80.65583602 -23.79101562 80.68505859 C-21.47143664 80.72641371 -19.15207768 80.76331911 -16.83227539 80.78955078 C-14.5869561 80.81711529 -12.34260402 80.86295909 -10.09765625 80.91162109 C-9.05695229 80.9165004 -9.05695229 80.9165004 -7.995224 80.92147827 C-5.15874764 80.99404499 -3.17627511 81.08322631 -0.79321289 82.69921875 C1.04405444 85.60840058 0.68839586 88.06851674 0.2734375 91.38818359 C-1.9774944 93.71878837 -3.36950111 94.34193132 -6.59689331 94.75999451 C-7.70686676 94.75903275 -8.81684021 94.75807098 -9.96044922 94.75708008 C-11.22210907 94.76396347 -12.48376892 94.77084686 -13.78366089 94.77793884 C-14.45520077 94.77476088 -15.12674065 94.77158291 -15.81863022 94.76830864 C-17.92961853 94.75917625 -20.03972271 94.76944591 -22.15066528 94.78492737 C-28.15039735 94.82496492 -34.15005888 94.82623298 -40.14990234 94.82397461 C-43.82460556 94.82392338 -47.49883222 94.84315506 -51.17340469 94.87330818 C-53.24644499 94.88409622 -55.31856092 94.8720255 -57.39157104 94.85948181 C-58.65953522 94.86951736 -59.92749939 94.87955292 -61.23388672 94.88989258 C-62.90123367 94.88964333 -62.90123367 94.88964333 -64.6022644 94.88938904 C-69.72921879 95.7079079 -72.81290133 98.30621642 -76.1015625 102.20068359 C-78.04271554 106.00832994 -78.25478159 108.16243085 -77.7265625 112.38818359 C-75.98661969 117.0585564 -73.88483879 119.64980653 -69.7265625 122.38818359 C-66.8527293 123.30061254 -64.2470388 123.51629041 -61.24156189 123.5262146 C-60.34849838 123.53166794 -59.45543488 123.53712128 -58.53530884 123.54273987 C-57.07718277 123.54430336 -57.07718277 123.54430336 -55.58959961 123.54589844 C-54.5599559 123.55097916 -53.53031219 123.55605988 -52.46946716 123.56129456 C-50.23451016 123.57199156 -47.99954249 123.58061437 -45.76457024 123.58741379 C-42.23064941 123.59919865 -38.69685101 123.61864852 -35.16297913 123.64053345 C-25.11577396 123.70217842 -15.06858264 123.75628303 -5.02124023 123.78955078 C1.12371344 123.81044616 7.26844183 123.84570303 13.41326714 123.89030838 C15.75806472 123.90450422 18.10290213 123.91319885 20.44774055 123.91636276 C23.72069167 123.92124828 26.99303971 123.94434371 30.26586914 123.97167969 C31.23997742 123.96867355 32.21408569 123.96566742 33.2177124 123.96257019 C34.55307793 123.97920967 34.55307793 123.97920967 35.91542053 123.9961853 C37.07600023 124.00115052 37.07600023 124.00115052 38.26002598 124.00621605 C40.84012759 124.49569128 41.72483387 125.29098694 43.2734375 127.38818359 C43.92466608 133.46631703 43.92466608 133.46631703 42.07568741 136.08369541 C39.63930779 137.84717361 38.057974 137.76186405 35.06243896 137.75999451 C33.44328835 137.77013077 33.44328835 137.77013077 31.79142761 137.7804718 C30.60696548 137.77275253 29.42250336 137.76503326 28.20214844 137.75708008 C26.9547438 137.76084656 25.70733917 137.76461304 24.4221344 137.76849365 C21.70784634 137.77493975 18.99415709 137.77602106 16.27993011 137.76830864 C11.9846374 137.75672731 7.68961454 137.76888785 3.39434814 137.78492737 C-7.27751023 137.8211294 -17.94936267 137.82735509 -28.62127686 137.8248291 C-36.90917947 137.82311642 -45.19686173 137.83029072 -53.48470283 137.86480767 C-57.75052052 137.88157175 -62.01580043 137.87983252 -66.28161573 137.86398494 C-69.56702816 137.85680562 -72.85231767 137.87543855 -76.13769531 137.88989258 C-77.31406052 137.88014908 -78.49042572 137.87040558 -79.70243835 137.86036682 C-86.26645613 137.91800414 -90.40261103 138.437502 -95.7265625 142.38818359 C-98.71959463 145.94607718 -99.7265625 149.4009124 -99.7265625 154.01318359 C-98.26032634 158.96173065 -96.52132199 162.2757241 -92.06677437 165.03682041 C-88.25762817 166.57790227 -85.00895143 166.80348242 -80.97067261 166.75999451 C-79.82790507 166.76573135 -79.82790507 166.76573135 -78.66205132 166.77158409 C-76.11940156 166.78084047 -73.57730041 166.76889613 -71.03466797 166.75708008 C-69.20778172 166.75954891 -67.38089689 166.76338815 -65.55401611 166.76849365 C-61.62529656 166.77682335 -57.69672198 166.77603125 -53.76800156 166.76830864 C-47.55784143 166.75672264 -41.34786777 166.76888984 -35.13772583 166.78492737 C-19.71650305 166.8211122 -4.2952848 166.82734821 11.12597656 166.8248291 C23.117708 166.8231194 35.10928718 166.83018751 47.10097587 166.86480767 C53.27682126 166.88162997 59.45229566 166.87978325 65.62813973 166.86398494 C69.46552898 166.8582005 73.30274108 166.8689051 77.14009857 166.88423157 C78.921911 166.88796712 80.70375285 166.88482293 82.48553848 166.87436104 C84.91464766 166.86104627 87.34245872 166.8721504 89.77151489 166.88938904 C90.47948719 166.87958226 91.18745949 166.86977548 91.9168855 166.85967153 C95.24846553 166.90869946 97.02790321 167.20927728 99.75012016 169.19279575 C101.2734375 171.38818359 101.2734375 171.38818359 101.1484375 175.01318359 C100.2734375 178.38818359 100.2734375 178.38818359 98.2734375 180.38818359 C95.48564625 180.64151669 95.48564625 180.64151669 91.85395813 180.64646912 C91.18748565 180.65014482 90.52101318 180.65382053 89.83434457 180.65760761 C87.59041398 180.66762563 85.34672937 180.66342931 83.1027832 180.65942383 C81.49810013 180.66380885 79.89341934 180.66911019 78.28874207 180.67526245 C74.82708149 180.68678349 71.36548231 180.69222343 67.90380287 180.69314384 C62.42825862 180.69508116 56.95284151 180.71311709 51.4773407 180.73390198 C37.87215664 180.78314384 24.26693785 180.81395492 10.66168213 180.83520508 C0.09843475 180.85173229 -10.46470424 180.87457129 -21.02787906 180.91822582 C-26.46855716 180.93999406 -31.90902937 180.94806068 -37.34974802 180.94583309 C-40.74041222 180.94750249 -44.13094268 180.96156807 -47.52155876 180.97904587 C-49.09085363 180.98463512 -50.66017636 180.98514005 -52.22947311 180.98010826 C-54.3773414 180.973945 -56.52436954 180.98623689 -58.67216492 181.00291443 C-60.47267823 181.00593142 -60.47267823 181.00593142 -62.30956554 181.00900936 C-67.50315717 181.58532715 -71.42535754 183.01849416 -75.1015625 186.88818359 C-77.83574045 191.09461121 -78.14606006 194.43811239 -77.7265625 199.38818359 C-75.25400551 204.23819923 -72.4347144 206.7370862 -67.7265625 209.38818359 C-64.28357659 209.99103439 -64.28357659 209.99103439 -60.57543945 209.91821289 C-59.88687866 209.92694427 -59.19831787 209.93567566 -58.4888916 209.94467163 C-56.23060537 209.96891605 -53.97324293 209.96564583 -51.71484375 209.96240234 C-50.13875277 209.97485552 -48.56267565 209.98919197 -46.98661804 210.00532532 C-42.8498954 210.04327278 -38.71341192 210.05852573 -34.57653809 210.06811523 C-27.94506261 210.08789449 -21.31376861 210.14470291 -14.68248558 210.19687843 C-12.3675158 210.21221897 -10.05263675 210.21941362 -7.73762512 210.22502136 C-6.32158362 210.23203682 -4.90554253 210.23913768 -3.48950195 210.24633789 C-2.25295364 210.24981735 -1.01640533 210.25329681 0.25761414 210.25688171 C3.2734375 210.38818359 3.2734375 210.38818359 6.2734375 211.38818359 C7.38789248 213.61709355 7.43824036 214.91873465 7.4609375 217.38818359 C7.47511719 218.08943359 7.48929687 218.79068359 7.50390625 219.51318359 C7.2734375 221.38818359 7.2734375 221.38818359 5.2734375 223.38818359 C2.36853217 223.59795609 -0.44856641 223.68933959 -3.35546875 223.69677734 C-5.13086232 223.72196133 -6.90625287 223.74735896 -8.68164062 223.77294922 C-11.47695966 223.80155521 -14.27222545 223.82556968 -17.06762695 223.84448242 C-19.76803732 223.8663238 -22.46779035 223.90580188 -25.16796875 223.94677734 C-26.40130699 223.94695107 -26.40130699 223.94695107 -27.65956116 223.9471283 C-34.49764317 224.06204858 -41.29531704 224.896157 -46.2265625 229.95068359 C-49.03694793 234.51755992 -49.37138342 238.06841101 -48.7265625 243.38818359 C-46.47775062 247.88580736 -44.27333667 250.30067328 -39.7265625 252.38818359 C-36.47479489 252.81993931 -33.24923686 252.80540582 -29.97265625 252.79443359 C-28.5658535 252.81068787 -28.5658535 252.81068787 -27.13063049 252.82727051 C-23.12888498 252.87306636 -19.12720483 252.88462414 -15.12524414 252.89941406 C-12.19914624 252.9150985 -9.27359132 252.94809267 -6.34765625 252.98193359 C-4.99129311 252.97740173 -4.99129311 252.97740173 -3.60752869 252.97277832 C2.65079961 253.04771272 2.65079961 253.04771272 5.84155273 254.79248047 C7.6104197 256.76371908 7.81324085 257.76116268 7.7734375 260.38818359 C7.78890625 261.40912109 7.78890625 261.40912109 7.8046875 262.45068359 C7.2734375 264.38818359 7.2734375 264.38818359 5.76953125 266.11083984 C1.62110992 268.2337409 -2.87563501 267.82371928 -7.43945312 267.82763672 C-12.44763579 267.95537401 -15.07912565 268.62830167 -18.7265625 272.38818359 C-20.32742877 275.58991613 -20.22573339 278.91395418 -19.7265625 282.38818359 C-17.93292339 285.1982182 -16.70775315 286.89758827 -13.7265625 288.38818359 C-10.93107738 288.52106165 -8.15641215 288.59815788 -5.359375 288.63427734 C-3.65233864 288.66721674 -1.94530752 288.70042837 -0.23828125 288.73388672 C2.45650618 288.78129729 5.15127251 288.8257249 7.84619141 288.86499023 C10.44456216 288.9047345 13.04249562 288.95627449 15.640625 289.00927734 C16.44490936 289.0176915 17.24919373 289.02610565 18.07785034 289.03477478 C25.23756161 289.19279467 25.23756161 289.19279467 28.2734375 291.38818359 C29.65893947 294.15918753 29.4611842 296.32165419 29.2734375 299.38818359 C27.2734375 302.38818359 27.2734375 302.38818359 24.2734375 303.38818359 C22.29505159 303.48835503 20.31567237 303.56966372 18.3359375 303.63818359 C13.48336074 303.98815942 13.48336074 303.98815942 9.4609375 306.63818359 C8.06709779 309.86602292 7.98997044 311.13673371 9.2734375 314.38818359 C10.32207688 316.14438698 10.32207688 316.14438698 12.2734375 317.38818359 C14.83221611 317.69446492 17.15017253 317.81864036 19.71069336 317.80810547 C20.46548477 317.81657501 21.22027618 317.82504456 21.99794006 317.83377075 C24.4948915 317.85718433 26.99122831 317.85816191 29.48828125 317.85693359 C31.22319283 317.86403263 32.95810205 317.87173125 34.69300842 317.88000488 C38.3304802 317.89345973 41.9677349 317.89501403 45.60522461 317.88916016 C50.26740962 317.88326342 54.92855349 317.9138491 59.59053707 317.95427704 C63.17393102 317.98012304 66.75707325 317.9830343 70.34054756 317.97938538 C72.05936869 317.98107959 73.77820107 317.99075106 75.49693108 318.00852966 C77.90092563 318.03065938 80.30280001 318.02105046 82.70678711 318.00341797 C83.41705048 318.01668121 84.12731384 318.02994446 84.85910034 318.04360962 C88.58349217 317.98011448 90.0198394 317.63129381 92.7502594 315.01379395 C94.50507832 312.51540895 94.50507832 312.51540895 94.2109375 309.76318359 C93.19983511 307.20172422 92.39260718 306.11033944 90.2734375 304.38818359 C88.35341082 303.9336369 88.35341082 303.9336369 86.23266602 303.98754883 C85.42495255 303.97421005 84.61723907 303.96087128 83.78504944 303.9471283 C82.48186012 303.94695457 82.48186012 303.94695457 81.15234375 303.94677734 C80.25603745 303.93356949 79.35973114 303.92036163 78.43626404 303.90675354 C75.56945709 303.86582254 72.70297073 303.84418058 69.8359375 303.82568359 C66.97257316 303.80188832 64.10951056 303.77373918 61.24632263 303.73390198 C59.46457923 303.70957425 57.68267614 303.69469187 55.90077209 303.69029236 C55.08990646 303.68010574 54.27904083 303.66991913 53.44360352 303.65942383 C52.73317398 303.65514877 52.02274445 303.65087372 51.29078674 303.64646912 C48.8693272 303.33644449 47.30374715 302.74678245 45.2734375 301.38818359 C44.36128871 297.52909255 44.01211519 295.17215051 45.2734375 291.38818359 C48.62526515 289.01503484 51.78581666 289.13714375 55.79858398 289.1328125 C56.76764679 289.12738182 56.76764679 289.12738182 57.75628662 289.12184143 C59.1547295 289.11496471 60.55319911 289.11243876 61.95165825 289.1137886 C64.16726117 289.11475602 66.38238184 289.10178712 68.59791565 289.08480835 C74.89539884 289.03859823 81.19283154 289.01392958 87.49047852 289.00732422 C91.34674815 289.00230478 95.20251252 288.97803574 99.05861092 288.94199753 C100.52535021 288.93221133 101.9921591 288.92986119 103.45892143 288.93516922 C105.51279453 288.94225409 107.56516531 288.92493275 109.61889648 288.90234375 C110.78597641 288.89949371 111.95305634 288.89664368 113.15550232 288.89370728 C116.91482033 288.28419355 118.57313937 287.02089701 121.2734375 284.38818359 C122.87430377 281.18645106 122.77260839 277.862413 122.2734375 274.38818359 C120.47979839 271.57814899 119.25462815 269.87877892 116.2734375 268.38818359 C112.7049985 268.18870564 109.14311346 268.04242095 105.5703125 267.95849609 C102.1884019 267.81807074 99.80768418 267.66279637 96.765625 266.09912109 C94.97795501 264.0493843 94.73259927 263.08350685 94.7734375 260.38818359 C94.75796875 259.36724609 94.75796875 259.36724609 94.7421875 258.32568359 C95.2734375 256.38818359 95.2734375 256.38818359 96.70751953 254.7902832 C100.64949966 252.63625924 104.43801087 252.98687354 108.859375 253.01708984 C110.7786476 252.99970621 112.6979184 252.98212185 114.6171875 252.96435547 C117.63447426 252.95428802 120.65164246 252.95068541 123.66894531 252.95239258 C126.58694589 252.94881543 129.50403674 252.92144489 132.421875 252.89208984 C133.31893158 252.90027237 134.21598816 252.9084549 135.14022827 252.91688538 C140.68479202 252.8512324 143.87515263 252.08976571 148.2734375 248.38818359 C151.43549498 244.69911654 151.79727534 241.30927627 151.625 236.60302734 C150.89496547 232.00380979 148.47047896 229.27829134 144.8359375 226.57568359 C139.41874889 224.06527911 133.9958813 224.24143882 128.140625 224.21240234 C126.34764426 224.18922304 124.55467544 224.1651065 122.76171875 224.14013672 C119.94604263 224.10490997 117.13081203 224.07560007 114.31494141 224.06225586 C111.58963062 224.04682778 108.8655994 224.00667952 106.140625 223.96240234 C105.29684296 223.96431076 104.45306091 223.96621918 103.58370972 223.96818542 C97.79577492 223.84651211 97.79577492 223.84651211 95.21142578 221.57885742 C93.78069881 218.23739122 94.37830387 215.84084189 95.2734375 212.38818359 C98.94957455 209.93742556 100.74365403 210.13721288 105.12817383 210.1328125 C106.16775993 210.12738182 106.16775993 210.12738182 107.22834778 210.12184143 C108.73266598 210.1149509 110.23700916 210.11244136 111.74134254 210.1137886 C114.12515264 210.11475407 116.50851207 210.10180885 118.89225769 210.08480835 C125.66942836 210.03854726 132.44655385 210.01393876 139.22387695 210.00732422 C143.37075567 210.00230107 147.5171654 209.97800868 151.66388512 209.94199753 C153.24144356 209.93221593 154.81906667 209.92985865 156.3966465 209.93516922 C158.60844396 209.94226395 160.81885135 209.92490998 163.03051758 209.90234375 C164.91556755 209.8980687 164.91556755 209.8980687 166.83869934 209.89370728 C172.17747478 209.10794799 175.2251642 206.62955987 178.6484375 202.57568359 C180.58959054 198.76803725 180.80165659 196.61393633 180.2734375 192.38818359 C178.53349469 187.71781079 176.43171379 185.12656066 172.2734375 182.38818359 C169.27358562 181.42586724 166.50864325 181.24962971 163.36889648 181.21459961 C161.91234901 181.19436485 161.91234901 181.19436485 160.42637634 181.17372131 C159.38461746 181.16328293 158.34285858 181.15284454 157.26953125 181.14208984 C155.06314683 181.10916799 152.85676672 181.07595608 150.65039062 181.04248047 C147.17198492 180.99495925 143.69359875 180.95048864 140.21508789 180.91137695 C136.85805609 180.87176526 133.50137255 180.82021314 130.14453125 180.76708984 C129.10074814 180.75867569 128.05696503 180.75026154 126.98155212 180.74159241 C126.01367264 180.72495041 125.04579315 180.70830841 124.04858398 180.69116211 C123.1968309 180.68085464 122.34507782 180.67054718 121.46751404 180.65992737 C119.2734375 180.38818359 119.2734375 180.38818359 116.2734375 178.38818359 C115.60443538 171.36366131 115.60443538 171.36366131 117.37091064 168.78794861 C120.23302223 166.68217878 122.59097361 167.01658057 126.11230469 167.01928711 C126.8037558 167.01552063 127.49520691 167.01175415 128.20761108 167.00787354 C129.7086527 167.00143999 131.20973505 167.00177214 132.71077728 167.00805855 C135.09076607 167.01716813 137.46996677 167.00694567 139.84991455 166.99143982 C146.61607615 166.95134581 153.38217688 166.95013167 160.1484375 166.95239258 C164.28880716 166.95244383 168.42875417 166.93319937 172.56900787 166.90305901 C174.90621178 166.89227033 177.24259577 166.90434468 179.57977295 166.91688538 C181.02552077 166.9079745 182.47126203 166.89789787 183.91699219 166.88647461 C185.17147156 166.88664078 186.42595093 166.88680695 187.71844482 166.88697815 C192.62710363 166.19825316 196.59786174 164.37998321 199.8671875 160.49365234 C202.11192369 155.74293911 202.82404345 152.62147868 201.2734375 147.38818359 C198.69978937 142.43152794 196.48388161 140.32630652 191.2734375 138.38818359 C187.11476979 137.95034903 182.9765389 137.98164605 178.7980957 138.00341797 C177.54382782 137.9980452 176.28955994 137.99267242 174.99728394 137.98713684 C172.27813099 137.9773633 169.55958579 137.97291509 166.8404789 137.97749329 C162.54183765 137.98431723 158.24346231 137.96841255 153.94487 137.94909668 C144.04898641 137.90807756 134.15311061 137.89668693 124.25715637 137.88556671 C115.17701251 137.87506204 106.09699682 137.85832615 97.01693219 137.81747103 C92.74256214 137.79909737 88.46849733 137.79522801 84.19409716 137.80240631 C80.91622215 137.80428201 77.63843506 137.78704924 74.3605957 137.77294922 C73.17456253 137.77909744 71.98852936 137.78524567 70.76655579 137.7915802 C69.68567688 137.78337753 68.60479797 137.77517487 67.49116516 137.76672363 C66.08006706 137.76565487 66.08006706 137.76565487 64.64046192 137.76456451 C62.2734375 137.38818359 62.2734375 137.38818359 60.47076702 136.08327484 C58.46792394 133.24779663 58.9152848 130.73094212 59.2734375 127.38818359 C60.81996374 125.29487158 61.70135241 124.49557438 64.27846909 124.01180267 C65.04829243 124.01109016 65.81811577 124.01037766 66.61126709 124.00964355 C67.49717529 124.00144089 68.3830835 123.99323822 69.2958374 123.98478699 C70.26523254 123.99093521 71.23462769 123.99708344 72.23339844 124.00341797 C73.25647095 123.9980452 74.27954346 123.99267242 75.33361816 123.98713684 C77.55820576 123.97734336 79.78283163 123.97441941 82.00743866 123.97749329 C85.52990502 123.98196162 89.05186636 123.96799722 92.57427979 123.94909668 C100.057324 123.91225501 107.54031594 123.89860077 115.0234375 123.88818359 C123.68068304 123.8761072 132.33768392 123.85453536 140.99481964 123.80818176 C144.46195582 123.79461305 147.92878274 123.79878315 151.39593506 123.80358887 C153.52926017 123.79424577 155.66258188 123.78407632 157.79589844 123.77294922 C158.75719666 123.77909744 159.71849487 123.78524567 160.70892334 123.7915802 C166.33256404 123.74016525 170.30844681 123.09525602 175.2734375 120.38818359 C178.72351051 116.7565278 180.11276871 114.09127281 180.5859375 109.07568359 C180.20856788 104.62272209 179.14096637 102.78394147 176.2734375 99.38818359 C172.00550279 96.05520169 169.24891995 94.88872994 163.84628296 94.89611816 C162.57327835 94.88798599 161.30027374 94.87985382 159.98869324 94.87147522 C158.59060397 94.88256584 157.19251743 94.89400633 155.79443359 94.90576172 C154.31236919 94.90357434 152.83030652 94.8995753 151.34825134 94.89390564 C148.16429409 94.88535708 144.98067434 94.88910068 141.79673386 94.90232849 C136.76270286 94.92269016 131.72901106 94.91267802 126.69497681 94.89807129 C116.0127665 94.8713364 105.33066689 94.87804692 94.6484375 94.88818359 C83.1088054 94.89912873 71.56934787 94.90439745 60.0297457 94.87088919 C55.0246492 94.85750368 50.02006155 94.86349124 45.01499534 94.88425446 C41.90416761 94.89322841 38.79353695 94.88577777 35.68272591 94.87384224 C34.23954289 94.87170834 32.79633099 94.87645079 31.3531971 94.8885479 C29.38439931 94.90412246 27.41544362 94.89288214 25.44662476 94.88024902 C23.79355599 94.88251118 23.79355599 94.88251118 22.1070919 94.88481903 C18.58372639 94.26730259 17.36838414 93.25185799 15.2734375 90.38818359 C15.48772321 84.17389788 15.48772321 84.17389788 18.2734375 81.38818359 C20.37127113 81.1348505 20.37127113 81.1348505 23.01577759 81.12989807 C24.51710739 81.11965607 24.51710739 81.11965607 26.04876709 81.10920715 C27.1510968 81.1117601 28.25342651 81.11431305 29.38916016 81.11694336 C30.54703033 81.11171661 31.70490051 81.10648987 32.89785767 81.10110474 C35.41985335 81.09084027 37.94187037 81.0850801 40.46388626 81.08322334 C44.45690792 81.0795721 48.44976008 81.0632333 52.44271851 81.04246521 C62.36618275 80.99325096 72.28969456 80.96244691 82.21325684 80.94116211 C89.91495882 80.92461262 97.61651263 80.90170399 105.31811559 80.85814136 C108.63387976 80.83998176 111.94939646 80.82956556 115.26521683 80.82943916 C118.97078026 80.82924677 122.67585953 80.81095221 126.38134766 80.78881836 C127.47153198 80.79339554 128.56171631 80.79797272 129.68493652 80.8026886 C135.91376409 80.74364524 140.62910258 80.09540184 146.2734375 77.38818359 C150.5696698 72.87163168 151.63288549 69.78838962 151.5546875 63.70849609 C151.1182387 60.10779347 149.63875511 58.07313872 147.2734375 55.38818359 C143.5556271 52.714248 140.99904944 52.01270702 136.44506836 52.00341797 C135.29715317 51.99330688 134.14923798 51.9831958 132.96653748 51.97277832 C131.73621292 51.97579956 130.50588837 51.9788208 129.23828125 51.98193359 C127.96747208 51.97109741 126.6966629 51.96026123 125.38734436 51.94909668 C120.63929486 51.90900122 115.89143334 51.89506741 111.14324951 51.88287354 C106.48722059 51.869508 101.83167537 51.83416428 97.17578125 51.79443359 C95.94343246 51.79745483 94.71108368 51.80047607 93.44139099 51.80358887 C92.29662796 51.79347778 91.15186493 51.7833667 89.97241211 51.77294922 C88.46281166 51.76986755 88.46281166 51.76986755 86.92271423 51.76672363 C83.86735308 51.33016051 82.49132228 50.50030491 80.2734375 48.38818359 C79.7421875 46.45068359 79.7421875 46.45068359 79.7734375 44.38818359 C79.75796875 43.36724609 79.75796875 43.36724609 79.7421875 42.32568359 C80.52227753 39.48064937 81.73621727 38.85958173 84.2734375 37.38818359 C87.58569336 37.01928711 87.58569336 37.01928711 91.48828125 37.01708984 C92.91080971 36.99970852 94.3333357 36.98212413 95.75585938 36.96435547 C97.9853165 36.95428743 100.21461288 36.95068641 102.4440918 36.95239258 C104.60513601 36.94881192 106.76495592 36.9214358 108.92578125 36.89208984 C110.21476318 36.89023682 111.50374512 36.88838379 112.83178711 36.88647461 C116.81736844 36.30943187 118.44917155 35.1993363 121.2734375 32.38818359 C122.87430377 29.18645106 122.77260839 25.862413 122.2734375 22.38818359 C120.47979839 19.57814899 119.25462815 17.87877892 116.2734375 16.38818359 C114.56169003 16.28663043 112.84601128 16.24872351 111.13127136 16.24101257 C110.04190781 16.23385727 108.95254425 16.22670197 107.83016968 16.21932983 C106.62961945 16.21664093 105.42906921 16.21395203 104.19213867 16.21118164 C102.93191391 16.20461044 101.67168915 16.19803925 100.37327576 16.19126892 C96.91036536 16.17385558 93.44746877 16.16330625 89.98452544 16.15506339 C87.82125277 16.14991388 85.65798438 16.14383813 83.49471474 16.13755226 C76.72707636 16.11849914 69.9594489 16.10426833 63.19178885 16.09594029 C55.37829111 16.0861667 47.56507658 16.05984483 39.75167865 16.0194394 C33.71339113 15.98928462 27.67518483 15.97447204 21.63682348 15.97115928 C18.02989698 15.96880802 14.42327299 15.9598384 10.81642723 15.9346981 C6.79174329 15.90709886 2.76769244 15.91124649 -1.25708008 15.91821289 C-3.04879639 15.8989978 -3.04879639 15.8989978 -4.87670898 15.87939453 C-12.68438028 15.80284014 -12.68438028 15.80284014 -18.7265625 20.38818359 Z " fill="#10B2B9" transform="translate(459.7265625,161.61181640625)"/>
<path d="M0 0 C5.61622198 4.18124015 8.80144775 10.27316691 10.9609375 16.8203125 C12.415609 26.880865 10.61227969 35.15443668 5.1484375 43.6328125 C-1.33003022 50.11128022 -8.75378016 53.76387514 -18.0390625 54.1953125 C-26.41539058 53.7900063 -34.16089221 50.87470203 -40.0390625 44.8203125 C-46.60889449 35.75995597 -48.2500603 27.99875372 -47.0390625 16.8203125 C-44.64255542 9.42537638 -40.89108354 2.78450858 -34.0390625 -1.1796875 C-22.18738685 -6.9778919 -11.46611128 -6.63365059 0 0 Z " fill="#09B0B7" transform="translate(529.0390625,376.1796875)"/>
<path d="M0 0 C1.03446259 -0.00058411 2.06892517 -0.00116821 3.13473511 -0.00177002 C6.55468273 0.00101715 9.97375928 0.03214019 13.39355469 0.06347656 C15.76437911 0.07093667 18.13520969 0.07663069 20.50604248 0.08062744 C26.74675514 0.09590173 32.98709557 0.13519958 39.22766113 0.17944336 C45.59540776 0.22035703 51.96321452 0.23863015 58.33105469 0.25878906 C70.82600992 0.30169162 83.32068885 0.36996511 95.81542969 0.45410156 C95.81542969 0.78410156 95.81542969 1.11410156 95.81542969 1.45410156 C93.85225044 1.46290092 93.85225044 1.46290092 91.84941101 1.47187805 C79.53280966 1.52901889 67.21638634 1.60173504 54.89996624 1.68981647 C48.56751965 1.73459952 42.23513859 1.77383813 35.90258789 1.80053711 C29.7946473 1.82649091 23.6869578 1.86683696 17.57917213 1.91728783 C15.24554371 1.93401026 12.9118718 1.94549092 10.57819176 1.95171547 C7.31675077 1.96129809 4.05596003 1.98928751 0.79467773 2.02172852 C-0.17636398 2.02029343 -1.1474057 2.01885834 -2.14787292 2.01737976 C-3.47928818 2.03618698 -3.47928818 2.03618698 -4.83760071 2.05537415 C-5.9949118 2.06228759 -5.9949118 2.06228759 -7.17560291 2.06934071 C-9.74328199 2.56110697 -10.61735369 3.39005461 -12.18457031 5.45410156 C-12.91149292 8.56249178 -12.91149292 8.56249178 -13.18457031 11.45410156 C-13.51457031 11.45410156 -13.84457031 11.45410156 -14.18457031 11.45410156 C-14.66403545 5.2210548 -14.66403545 5.2210548 -12.80548096 2.24810791 C-8.73058908 -0.54114471 -4.82696649 -0.07106604 0 0 Z " fill="#32BCC3" transform="translate(532.1845703125,284.5458984375)"/>
<path d="M0 0 C0.66 0.33 1.32 0.66 2 1 C-1.63 4.63 -5.26 8.26 -9 12 C-9 8.47601214 -8.44884893 7.98495633 -6.1875 5.4375 C-5.40439453 4.53837891 -5.40439453 4.53837891 -4.60546875 3.62109375 C-3 2 -3 2 0 0 Z " fill="#6DD0D4" transform="translate(409,202)"/>
<path d="M0 0 C0.66 0.33 1.32 0.66 2 1 C-1.3 4.3 -4.6 7.6 -8 11 C-8 6.67750434 -5.85084926 5.11604454 -3 2 C-2.01 1.34 -1.02 0.68 0 0 Z " fill="#70D1D5" transform="translate(495,375)"/>
<path d="M0 0 C0.66 0.33 1.32 0.66 2 1 C-1.3 4.3 -4.6 7.6 -8 11 C-8 7.0234755 -6.61988497 5.9109833 -4 3 C-1.75 1.1875 -1.75 1.1875 0 0 Z " fill="#70D1D5" transform="translate(358,289)"/>
<path d="M0 0 C0.86625 0.37125 0.86625 0.37125 1.75 0.75 C0.574375 1.2759375 0.574375 1.2759375 -0.625 1.8125 C-4.08547272 4.36665844 -4.39536744 6.63222494 -5.25 10.75 C-5.58 10.75 -5.91 10.75 -6.25 10.75 C-6.73514851 4.44306931 -6.73514851 4.44306931 -4.5 1.25 C-2.25 -0.25 -2.25 -0.25 0 0 Z " fill="#5FCBD0" transform="translate(524.25,285.25)"/>
</svg>
